<?xml version="1.0" standalone="no"?><!DOCTYPE svg PUBLIC "-//W3C//DTD SVG 1.1//EN" "http://www.w3.org/Graphics/SVG/1.1/DTD/svg11.dtd"><svg t="1652877624649" class="icon" viewBox="0 0 1024 1024" version="1.1" xmlns="http://www.w3.org/2000/svg" p-id="1013" xmlns:xlink="http://www.w3.org/1999/xlink" width="200" height="200"><defs><style type="text/css">@font-face { font-family: feedback-iconfont; src: url("//at.alicdn.com/t/font_1031158_u69w8yhxdu.woff2?t=1630033759944") format("woff2"), url("//at.alicdn.com/t/font_1031158_u69w8yhxdu.woff?t=1630033759944") format("woff"), url("//at.alicdn.com/t/font_1031158_u69w8yhxdu.ttf?t=1630033759944") format("truetype"); }
</style></defs><path d="M512 919.77955555c-37.25842963 0-74.63822222-10.67994075-107.1634963-31.91845925-51.09380741-33.37481482-126.46020741-87.13860741-194.66619259-153.40278519-77.91502222-75.60912592-131.072-151.94642963-158.01457778-226.94874074-13.83537778-38.59342222-20.87442963-77.18684445-20.87442963-114.688 0-31.06891852 4.36906667-61.89511111 12.98583705-91.7504 5.09724445-17.59762963 11.89357037-34.70980741 20.02488888-51.0938074 10.8013037-21.84533333 24.39395555-42.23431111 40.41386667-60.68148149 15.04900741-17.3549037 32.28254815-32.64663703 51.33653333-45.51111111 8.13131852-5.46133333 16.62672592-10.43721482 25.36485926-14.92764445 18.44717037-9.34494815 38.10797037-16.26263703 58.49694814-20.26761481 14.44219259-2.91271111 29.12711111-4.36906667 43.81202964-4.36906666h0.12136296c100.48853333 0 191.38939259 67.96325925 231.43917037 173.18494814 0 0 0 0.12136297 0.12136297 0.12136296 7.76722963 20.75306667 11.77220741 42.35567408 12.13629628 64.44373334l0.84954075 35.55934814c0.24272592 13.34992592-10.31585185 24.51531852-23.66577778 24.75804445-13.47128889 0.24272592-24.51531852-10.31585185-24.75804444-23.66577778l-0.84954075-35.55934815v-0.12136296c-0.24272592-16.50536297-3.2768-32.768-9.10222221-48.30245926C436.99768889 208.47122963 363.93718518 152.76562963 283.83762963 152.76562963c-11.52948148 0-22.9376 1.09226667-34.22435555 3.39816296-16.01991111 3.15543703-31.43300741 8.61677037-45.99656297 16.01991111-6.91768889 3.51952592-13.83537778 7.5245037-20.26761481 11.89357038-15.4130963 10.43721482-29.4912 22.81623703-41.74885927 37.0157037-13.22856297 15.29173333-24.51531852 32.40391111-33.61754073 50.60835555-6.91768889 13.83537778-12.50038518 28.27757037-16.86945185 43.08385185-7.40314075 25.36485925-11.16539259 51.70062222-11.04402963 78.15774815 0 31.91845925 6.06814815 65.05054815 17.96171851 98.304C154.46471111 648.16924445 331.16918518 781.54714075 431.41499259 847.08314075c48.90927408 32.03982222 112.13937778 32.03982222 161.04865186 0 100.36717037-65.536 277.07164445-199.03525925 333.50542222-356.2002963 0-0.12136297 0.12136297-0.24272592 0.12136296-0.3640889 11.89357037-31.31164445 17.84035555-64.20100741 17.84035555-97.81854814 0-63.95828148-21.23851852-124.15431111-59.71057777-169.54405926-20.75306667-24.51531852-45.26838518-43.08385185-72.69641482-55.22014815-22.69487408-10.07312592-46.72474075-15.29173333-71.48278518-15.29173333-63.71555555 0-122.69795555 34.22435555-161.65546666 93.93493333-7.28177778 11.16539259-22.33078518 14.44219259-33.61754075 7.03905185-11.16539259-7.28177778-14.44219259-22.33078518-7.03905185-33.61754074 22.81623703-34.95253333 52.79288889-64.07964445 86.77451852-83.98317036C660.06281482 115.26447408 699.99122963 104.22044445 740.16237037 104.22044445c31.67573333 0 62.2592 6.5536 91.14358518 19.41807407 34.10299259 15.04900741 64.44373333 37.98660741 90.05131853 68.20598518 45.8752 54.12788148 71.24005925 125.4893037 71.24005925 200.85570371 0.12136297 39.3216-6.91768889 78.03638518-20.87442963 114.80936296-26.94257778 74.88094815-80.09955555 151.21825185-157.89321481 226.70601481-68.20598518 66.26417778-143.57238518 120.02797037-194.66619259 153.40278519-32.52527408 21.48124445-69.90506667 32.16118518-107.1634963 32.16118518z" p-id="1014"></path></svg>